<?xml version="1.0" encoding="utf-8"?>
<svg width="1024" height="1024" viewBox="0 0 1024 1024" fill="none" xmlns="http://www.w3.org/2000/svg">
  <g>
    <g>
      <g transform="translate(177.966 149.342)">
        <path d="M672.681 552.663C672.181 598.163 654.981 631.743 611.771 652.943C585.271 665.943 554.011 685.343 529.771 705.943C483.791 745.003 437.031 750.443 386.681 727.143C385.311 726.513 379.811 723.183 373.391 719.263C363.721 713.353 351.961 707.073 349.061 705.573C347.201 704.613 332.931 696.233 331.471 695.473C325.481 692.373 311.131 684.543 310.091 684.073C295.101 677.243 279.931 670.273 264.631 665.163C246.151 658.953 227.481 652.983 208.741 649.233C208.671 649.203 208.601 649.193 208.541 649.183C164.861 640.433 120.791 638.183 77.581 641.973C75.0211 642.233 72.4611 642.603 70.2411 642.683C59.7311 643.073 48.9711 641.123 38.7811 636.323C32.1811 633.223 26.3111 629.193 21.2711 624.473C0.70108 605.213 -6.20892 574.393 6.13107 547.313C16.4511 524.673 37.6911 510.593 60.7811 508.283C63.2311 508.033 65.9111 507.973 68.2211 507.843C97.9511 507.023 129.101 509.843 158.671 518.703C159.431 518.923 163.151 520.103 164.281 520.453C172.061 522.963 179.791 524.813 187.461 528.023C187.461 528.023 201.871 534.263 204.471 535.413C217.271 540.813 232.131 535.083 237.931 522.353C241.151 515.263 240.921 507.443 237.901 500.923C237.641 500.363 237.361 499.813 237.061 499.273C229.671 486.033 209.071 464.153 199.951 454.243C199.951 454.243 199.941 454.213 199.941 454.213C171.801 423.573 132.461 393.363 101.551 374.733C79.871 362.243 72.381 359.663 42.941 344.043C37.651 341.233 32.901 337.813 28.731 333.883C9.67102 316.043 2.68102 288.063 11.621 262.593C11.621 262.593 13.061 258.773 13.911 256.903C17.561 248.883 22.601 241.913 28.601 236.173C28.601 236.173 28.601 236.153 28.601 236.153C47.951 217.623 77.391 211.693 103.251 223.473C104.841 224.203 111.171 227.743 111.331 227.833C163.151 258.893 210.051 294.933 244.921 340.973C244.941 340.983 246.771 343.143 247.551 343.933C248.321 344.713 250.021 345.833 251.491 346.503C253.901 347.603 256.461 348.053 258.931 347.913C258.981 347.913 259.101 347.903 259.101 347.903C264.771 347.543 270.071 344.143 272.591 338.613C273.571 336.443 274.031 334.183 274.031 331.943C274.021 331.883 274.011 331.793 274.031 331.723C273.981 330.163 273.731 328.643 273.251 327.173C273.201 326.983 272.521 325.153 272.401 324.863C269.411 316.763 243.161 278.773 216.271 240.923C216.011 240.563 215.751 240.203 215.491 239.833C195.691 211.993 175.661 184.373 164.411 168.973C159.011 161.583 155.641 157.003 155.271 156.543C139.921 137.443 135.581 110.463 146.441 86.6228C150.201 78.3528 155.451 71.2028 161.701 65.3528C162.771 64.3428 166.261 61.4328 166.291 61.4328C172.381 56.6728 179.251 53.0128 186.531 50.5928C186.541 50.5828 186.571 50.5728 186.591 50.5628C190.231 49.3528 193.971 48.4628 197.801 47.8728C210.291 45.9828 223.441 47.5828 235.791 53.2128C251.191 60.2228 262.661 72.2928 269.161 86.5528C269.161 86.5528 269.171 86.5628 269.171 86.5628C270.501 89.4828 271.631 92.4928 272.531 95.5728C273.581 98.5528 357.721 262.823 357.721 262.823C359.261 265.033 361.441 266.873 364.081 268.083C364.331 268.193 364.581 268.303 364.831 268.403C367.001 269.263 369.271 269.613 371.461 269.493C371.481 269.503 372.051 269.463 372.331 269.423C375.021 269.153 377.581 268.193 379.781 266.653C379.801 266.643 380.231 266.333 380.441 266.183C382.411 264.643 384.071 262.633 385.181 260.193C385.941 258.513 386.391 256.753 386.531 255.013C386.641 253.983 386.591 252.623 386.461 251.773C386.321 250.923 385.111 246.853 385.101 246.833C364.011 188.203 351.661 128.323 355.491 64.9828C355.491 64.8528 355.781 60.8528 355.791 60.6528C356.511 53.5328 358.401 46.3928 361.531 39.5128C367.401 26.6228 376.821 16.4728 388.101 9.67281C388.101 9.67281 388.121 9.6828 388.121 9.6828C404.901 -0.417206 425.831 -3.05721 445.321 3.86279C445.341 3.8528 445.341 3.8528 445.351 3.87279C445.351 3.87279 445.381 3.86279 445.381 3.86279C447.221 4.5228 449.061 5.25279 450.871 6.08279C466.261 13.0928 477.761 25.1728 484.271 39.4428C489.291 50.4628 491.351 62.7828 489.941 75.0928C489.551 77.3328 489.171 79.5728 488.821 81.8128C483.521 114.783 481.891 147.893 483.711 180.593C484.891 202.023 487.581 223.293 491.721 244.233C491.761 244.543 492.081 245.993 492.081 245.993C492.931 249.083 494.691 251.913 497.211 254.023C497.211 254.023 497.221 254.023 497.221 254.023C497.341 254.123 499.681 255.633 500.871 256.173C502.301 256.823 503.781 257.263 505.261 257.493C508.281 257.953 511.321 257.543 514.031 256.303C514.211 256.243 514.371 256.153 514.521 256.073C517.691 254.513 520.371 251.883 521.941 248.423C523.521 244.913 523.081 241.773 523.201 238.583C523.191 204.373 526.841 169.833 534.691 135.643C535.061 134.013 535.431 132.383 535.831 130.753C536.771 127.343 537.991 123.943 539.511 120.603C554.951 86.7028 594.961 71.7628 628.861 87.2028C644.231 94.2028 655.621 106.193 662.051 120.373C668.211 133.923 669.831 149.473 666.061 164.593C664.341 171.203 663.101 174.483 661.491 179.353C647.901 220.303 638.321 260.373 635.441 301.283C635.431 301.383 635.431 301.483 635.421 301.583C632.501 343.083 635.751 383.513 644.081 423.113C647.661 440.153 652.181 457.043 657.551 473.793C661.201 485.303 666.019 505.284 668.001 512.563C669.983 519.842 673.291 541.323 672.681 552.663C672.681 552.663 672.681 552.663 672.681 552.663Z" fill="#464E57" transform="translate(7.996 8.942)" />
        <path d="M416.248 715.316C399.693 715.316 383.38 711.708 367.762 704.592C365.985 703.782 353.941 697.036 345.147 692.11C337.506 687.83 330.907 684.134 328.788 683.033C322.782 679.928 308.387 673.075 307.176 672.524C292.129 665.668 276.668 659.576 261.224 654.42C242.846 648.245 223.925 643.186 204.995 639.387C204.799 639.333 204.601 639.29 204.399 639.257C174.368 633.252 143.611 630.207 112.981 630.207C99.4179 630.207 85.6818 630.808 72.1538 631.993C71.2498 632.082 70.4018 632.178 69.5668 632.273C67.9268 632.46 66.3778 632.635 65.0598 632.685C64.2508 632.715 63.4378 632.731 62.6258 632.731C53.2688 632.731 44.2848 630.735 35.9218 626.801C20.9038 619.736 9.50482 607.316 3.82584 591.829C-1.85416 576.343 -1.19116 559.495 5.69183 544.389C14.8408 524.312 34.2288 510.469 56.2888 508.262C57.8698 508.098 59.5978 508.021 61.2688 507.945C62.0148 507.912 62.7438 507.879 63.4428 507.84C66.6378 507.752 69.8558 507.708 73.0088 507.708C101.707 507.708 128.365 511.335 152.242 518.489C152.85 518.669 155.301 519.441 156.83 519.923C156.83 519.923 157.788 520.224 157.788 520.224C160.278 521.027 162.809 521.776 165.256 522.501C170.549 524.068 175.549 525.548 180.532 527.636C180.623 527.675 194.903 533.853 197.449 534.982C201.342 536.627 205.359 537.442 209.473 537.442C221.503 537.442 232.498 530.369 237.486 519.424C241.521 510.568 241.128 500.257 236.436 491.842C229.313 479.07 210.806 459.034 200.863 448.27C200.863 448.27 199.194 446.461 199.194 446.461C199.194 446.461 198.631 445.836 198.631 445.836C167.687 412.13 126.947 382.213 99.1368 365.455C86.3778 358.098 78.4458 354.12 68.4038 349.083C61.0138 345.377 52.6388 341.177 40.2898 334.623C27.2078 327.68 17.1018 316.208 11.8338 302.322C6.61084 288.555 6.43385 273.279 11.3318 259.302C11.7328 258.237 12.8418 255.354 13.4688 253.978C16.7798 246.709 21.3538 240.25 27.0638 234.779C27.0638 234.779 27.7378 234.133 27.7378 234.133C39.2028 223.485 54.6798 217.395 70.3498 217.395C79.2898 217.395 87.9828 219.29 96.1859 223.027C97.3929 223.578 102.987 226.68 103.855 227.173C163.048 262.657 205.048 298.204 235.947 338.993C235.947 338.993 236.683 339.963 236.683 339.963C236.683 339.963 236.838 340.038 236.838 340.038C237.663 340.99 238.46 341.895 238.989 342.433C240.394 343.864 242.733 345.282 244.427 346.054C247.167 347.302 250.073 347.936 253.065 347.936C253.453 347.936 253.839 347.924 254.225 347.903C254.225 347.903 254.431 347.895 254.431 347.895C262.152 347.4 268.939 342.723 272.144 335.689C273.371 332.996 274.006 330.141 274.035 327.197C274.035 327.197 274.051 327.113 274.051 327.113C274.051 327.113 274.033 326.527 274.033 326.527C273.967 324.493 273.632 322.526 273.036 320.68C272.979 320.496 272.867 320.17 272.115 318.16C265.46 300.165 155.199 149.676 154.177 148.406C139.349 129.963 136.214 105.17 145.995 83.701C149.405 76.217 154.158 69.59 160.122 64.004C160.958 63.217 163.847 60.799 164.371 60.373C164.371 60.373 164.372 60.373 164.372 60.373C170.018 55.968 176.325 52.593 183.115 50.342C183.115 50.342 184.481 49.889 184.481 49.889C187.42 48.987 190.471 48.291 193.572 47.814C196.633 47.352 199.764 47.117 202.865 47.117C211.811 47.117 220.513 49.015 228.73 52.759C245.226 60.275 257.623 74.572 262.743 91.984C262.743 91.984 262.78 92.11 262.78 92.11C262.78 92.11 262.823 92.233 262.823 92.233C263.871 95.212 322.932 210.623 348.276 260.104C348.276 260.104 348.433 260.411 348.433 260.411C348.433 260.411 348.631 260.693 348.631 260.693C350.727 263.686 353.628 266.084 357.019 267.629C359.769 268.882 362.675 269.518 365.655 269.518C365.977 269.518 366.297 269.511 366.617 269.496C367.048 269.483 367.64 269.421 367.867 269.396C371.366 269.037 374.739 267.784 377.625 265.769C377.77 265.671 377.919 265.563 378.086 265.443C378.086 265.443 378.436 265.192 378.436 265.192C378.436 265.192 378.527 265.121 378.527 265.121C381.235 263.007 383.324 260.363 384.736 257.264C385.731 255.081 386.332 252.789 386.521 250.454C386.657 249.045 386.612 247.303 386.407 245.997C386.219 244.803 384.989 240.618 384.779 240.041C384.779 240.041 384.816 240.14 384.816 240.14C361.66 175.78 352.068 116.949 355.493 60.284C355.493 60.284 355.507 60.013 355.507 60.013C355.537 59.535 355.62 58.363 355.686 57.417C355.726 56.847 355.76 56.351 355.778 56.084C356.473 49.357 358.26 42.796 361.091 36.582C366.209 25.35 374.393 16.008 384.8 9.506C384.8 9.506 385.706 8.968 385.706 8.968C395.453 3.101 406.601 0 417.944 0C424.953 0 431.865 1.18201 438.494 3.51401C438.494 3.51401 438.613 3.55901 438.613 3.55901C439.6 3.92601 442.456 5.017 443.81 5.63301C468.49 16.879 483.019 42.487 479.997 69.388C479.615 71.608 479.233 73.83 478.891 76.049C473.606 108.924 471.866 142.519 473.726 175.869C474.909 197.31 477.627 218.925 481.804 240.112C481.844 240.35 481.941 240.859 482.206 242.065C482.206 242.065 482.233 242.19 482.233 242.19C482.233 242.19 482.268 242.314 482.268 242.314C483.405 246.469 485.734 250.113 489.003 252.851C489.003 252.851 489.493 253.261 489.493 253.261C489.493 253.261 489.773 253.394 489.773 253.394C490.788 254.064 492.635 255.193 493.801 255.724C496.643 257.019 499.63 257.675 502.682 257.675C505.59 257.675 508.39 257.079 511.004 255.903C511.206 255.819 511.403 255.727 511.593 255.633C511.593 255.633 511.746 255.56 511.746 255.56C516.046 253.437 519.51 249.863 521.5 245.497C523.189 241.735 523.186 238.353 523.183 235.635C523.183 235.01 523.181 234.387 523.204 233.762C523.204 233.762 523.207 233.578 523.207 233.578C523.196 198.932 527.019 164.675 534.568 131.758C534.932 130.172 535.296 128.586 535.676 127.008C536.562 123.813 537.704 120.674 539.069 117.677C549.188 95.466 571.51 81.114 595.935 81.114C604.882 81.114 613.583 83.011 621.795 86.753C648.994 99.146 663.469 129.269 656.215 158.379C654.904 163.438 653.881 166.458 652.697 169.955C652.392 170.857 652.078 171.783 651.749 172.774C636.489 218.778 628.135 257.913 625.457 295.933C625.457 295.933 625.439 296.289 625.439 296.289C621.25 355.849 628.431 415.065 646.782 472.293C646.782 472.293 647.445 474.361 647.445 474.361C654.324 496.556 657.436 514.728 656.698 528.397C656.698 528.397 656.691 528.612 656.691 528.612C656.229 570.654 633.02 604.142 589.574 625.455C567.035 636.511 534.673 654.458 508.499 677.167C479.733 702.124 447.833 715.316 416.248 715.316C416.248 715.316 416.248 715.316 416.248 715.316Z" fill="#FFCD2A" transform="translate(4.988 5)" />
        <path d="M422.932 3.05176e-05C410.619 3.05176e-05 398.56 3.39703 388.115 9.68404C388.115 9.68404 388.099 9.67703 388.099 9.67703C376.817 16.469 367.398 26.627 361.53 39.509C358.394 46.39 356.51 53.535 355.784 60.654C355.774 60.854 355.486 64.857 355.491 64.982C351.661 128.325 364.003 188.199 385.099 246.833C385.109 246.857 386.321 250.918 386.455 251.772C386.59 252.627 386.633 253.979 386.529 255.016C386.391 256.754 385.939 258.513 385.174 260.191C384.062 262.631 382.409 264.642 380.439 266.18C380.228 266.329 379.797 266.645 379.773 266.654C377.578 268.192 375.013 269.151 372.33 269.423C372.07 269.456 371.561 269.498 371.471 269.498C371.463 269.498 371.459 269.497 371.457 269.497C371.187 269.511 370.915 269.518 370.643 269.518C368.447 269.518 366.206 269.048 364.08 268.079C361.436 266.875 359.261 265.033 357.714 262.825C357.714 262.825 273.577 98.5551 272.528 95.5741C267.198 77.446 254.333 61.6581 235.791 53.209C226.714 49.073 217.209 47.116 207.853 47.116C204.474 47.116 201.112 47.372 197.8 47.872C193.971 48.46 190.227 49.354 186.587 50.561C186.563 50.57 186.538 50.579 186.53 50.596C179.249 53.01 172.381 56.675 166.285 61.43C166.286 61.429 166.286 61.428 166.286 61.428C166.273 61.428 162.774 64.336 161.692 65.355C155.444 71.207 150.202 78.356 146.433 86.627C135.576 110.458 139.913 137.44 155.268 156.539C157.447 159.248 266.12 307.876 272.401 324.861C272.512 325.157 273.195 326.983 273.252 327.172C273.73 328.639 273.977 330.164 274.025 331.721C274.011 331.796 274.014 331.879 274.024 331.945C274.03 334.179 273.571 336.446 272.582 338.616C270.065 344.141 264.77 347.542 259.098 347.905C259.098 347.905 258.973 347.909 258.932 347.911C258.64 347.927 258.347 347.936 258.054 347.936C255.853 347.936 253.611 347.472 251.488 346.504C250.014 345.833 248.318 344.717 247.544 343.93C246.771 343.142 244.937 340.981 244.921 340.974C210.043 294.933 163.146 258.896 111.331 227.836C111.169 227.742 104.841 224.204 103.248 223.478C94.1858 219.349 84.6868 217.395 75.3368 217.395C57.9988 217.395 41.1718 224.115 28.5998 236.152C28.5998 236.152 28.5928 236.168 28.5928 236.168C22.5988 241.911 17.5588 248.887 13.9068 256.904C13.0568 258.768 11.6198 262.596 11.6198 262.596C0.714767 293.629 13.4928 328.414 42.9338 344.04C72.3768 359.665 79.8647 362.238 101.545 374.736C132.456 393.365 171.8 423.569 199.936 454.217C199.936 454.217 199.945 454.242 199.945 454.242C209.063 464.148 229.671 486.033 237.056 499.277C240.86 506.097 241.43 514.656 237.924 522.351C233.6 531.839 224.248 537.442 214.461 537.442C211.119 537.442 207.724 536.788 204.464 535.412C201.868 534.26 187.452 528.024 187.452 528.024C179.786 524.812 172.058 522.962 164.274 520.454C163.145 520.1 159.422 518.924 158.665 518.699C132.324 510.807 104.725 507.708 77.9947 507.708C74.7237 507.708 71.4617 507.754 68.2217 507.844C65.9067 507.975 63.2287 508.032 60.7797 508.287C37.6847 510.597 16.4477 524.673 6.13074 547.316C-9.23526 581.038 5.24974 620.551 38.7817 636.326C48.1247 640.722 57.9417 642.73 67.6137 642.73C68.4887 642.73 69.3637 642.713 70.2357 642.681C72.4557 642.598 75.0127 642.228 77.5777 641.974C90.9737 640.8 104.447 640.206 117.97 640.206C148.068 640.207 178.395 643.149 208.536 649.186C208.595 649.192 208.67 649.206 208.738 649.237C227.476 652.986 246.151 657.954 264.628 664.163C279.923 669.27 295.092 675.239 310.092 682.074C311.125 682.545 325.475 689.37 331.471 692.47C336.287 694.972 367.254 712.582 370.677 714.142C387.124 721.636 404.133 725.316 421.236 725.316C453.887 725.316 486.859 711.889 516.764 685.943C540.509 665.342 570.264 647.944 596.764 634.944C639.972 613.747 666.178 579.167 666.678 533.667C667.678 515.167 661.977 492.902 656.549 475.774C656.549 475.774 656.532 475.766 656.532 475.766C638.676 420.083 631.238 360.94 635.419 301.585C635.424 301.485 635.429 301.384 635.433 301.284C638.314 260.372 647.899 220.299 661.483 179.349C663.096 174.486 664.34 171.204 666.055 164.588C673.764 133.653 658.907 100.895 628.857 87.203C619.786 83.07 610.281 81.113 600.923 81.113C575.309 81.114 550.819 95.776 539.507 120.604C537.985 123.943 536.765 127.338 535.823 130.756C535.432 132.379 535.057 134.009 534.682 135.64C526.841 169.831 523.184 204.373 523.195 238.58C523.079 241.77 523.517 244.908 521.938 248.424C520.363 251.881 517.69 254.512 514.521 256.076C514.365 256.148 514.203 256.238 514.029 256.303C512.043 257.211 509.877 257.675 507.67 257.675C505.394 257.675 503.074 257.182 500.863 256.174C499.677 255.634 497.34 254.122 497.219 254.026C497.219 254.026 497.202 254.018 497.202 254.018C494.684 251.909 492.923 249.081 492.078 245.993C492.078 245.993 491.759 244.538 491.714 244.231C487.582 223.293 484.889 202.027 483.705 180.591C481.882 147.892 483.519 114.784 488.821 81.811C489.166 79.573 489.552 77.333 489.937 75.094C493.175 46.83 478.141 18.509 450.87 6.08299C449.057 5.256 445.349 3.87399 445.349 3.87399C445.343 3.85799 445.341 3.853 445.334 3.853C445.33 3.853 445.324 3.854 445.314 3.858C437.958 1.248 430.399 0 422.932 0C422.932 0 422.932 3.05176e-05 422.932 3.05176e-05ZM422.932 10C429.351 10 435.683 11.079 441.758 13.207C441.758 13.207 441.854 13.243 441.854 13.243C443.163 13.731 445.642 14.689 446.724 15.183C469.387 25.509 482.746 48.993 480.033 73.686C479.664 75.824 479.286 78.03 478.941 80.264C473.599 113.512 471.842 147.455 473.721 181.142C474.915 202.792 477.658 224.614 481.871 246.004C481.93 246.336 482.044 246.926 482.31 248.137C482.31 248.137 482.365 248.387 482.365 248.387C482.365 248.387 482.433 248.634 482.433 248.634C483.841 253.776 486.727 258.289 490.781 261.684C490.781 261.684 491.795 262.527 491.795 262.527C491.795 262.527 492.338 262.782 492.338 262.782C493.619 263.612 495.432 264.688 496.716 265.274C500.213 266.867 503.898 267.675 507.67 267.675C511.26 267.675 514.721 266.943 517.96 265.5C518.316 265.351 518.598 265.214 518.781 265.124C518.781 265.124 518.836 265.098 518.836 265.098C518.836 265.098 518.948 265.043 518.948 265.043C524.279 262.411 528.573 257.981 531.038 252.57C531.038 252.57 531.049 252.545 531.049 252.545C531.049 252.545 531.06 252.521 531.06 252.521C533.179 247.804 533.175 243.658 533.172 240.631C533.171 240.021 533.17 239.445 533.189 238.944C533.189 238.944 533.196 238.761 533.196 238.761C533.196 238.761 533.195 238.577 533.195 238.577C533.184 204.309 536.964 170.428 544.429 137.877C544.782 136.336 545.137 134.795 545.505 133.262C546.318 130.347 547.361 127.484 548.607 124.75C557.916 104.317 578.452 91.114 600.925 91.113C609.151 91.113 617.154 92.859 624.71 96.303C649.703 107.691 663.011 135.369 656.362 162.129C655.09 167.029 654.097 169.962 652.948 173.356C652.64 174.266 652.323 175.2 651.992 176.201C636.596 222.614 628.165 262.137 625.458 300.582C625.458 300.582 625.451 300.692 625.451 300.692L625.445 300.803C625.445 300.803 625.436 300.999 625.436 300.999C621.212 361.175 628.47 421.004 647.009 478.819C647.009 478.819 647.494 480.316 647.494 480.316C654.311 502.181 657.406 519.942 656.693 533.127C656.693 533.127 656.681 533.342 656.681 533.342C656.681 533.342 656.679 533.557 656.679 533.557C656.123 584.127 621.395 611.722 592.36 625.966C569.555 637.153 536.79 655.33 510.211 678.39C482.367 702.547 451.599 715.316 421.236 715.316C405.401 715.316 389.786 711.859 374.844 705.051C372.969 704.169 360.692 697.292 352.568 692.742C344.895 688.444 338.269 684.733 336.064 683.587C329.877 680.388 315.507 673.552 314.238 672.974C299.033 666.046 283.407 659.89 267.813 654.683C249.274 648.454 230.199 643.351 211.114 639.514C210.844 639.446 210.572 639.388 210.297 639.34C179.968 633.28 148.904 630.207 117.97 630.206C104.263 630.206 90.3796 630.814 76.7046 632.012C76.7046 632.012 76.6496 632.017 76.6496 632.017C76.6496 632.017 76.5947 632.022 76.5947 632.022C75.7236 632.109 74.8526 632.207 73.9946 632.305C72.4506 632.48 70.9916 632.646 69.8616 632.688C69.1147 632.716 68.3586 632.73 67.6136 632.73C58.9977 632.73 50.7296 630.896 43.0376 627.277C29.2186 620.775 18.7316 609.351 13.5076 595.107C8.28365 580.864 8.89565 565.364 15.2307 551.462C19.4666 542.166 26.0947 534.18 34.3967 528.37C42.4617 522.726 51.9297 519.222 61.8147 518.233C63.2307 518.086 64.8847 518.012 66.4846 517.94C67.2236 517.907 67.9467 517.874 68.6407 517.836C71.7646 517.75 74.9107 517.708 77.9947 517.708C106.209 517.708 132.385 521.264 155.821 528.286C156.332 528.438 158.953 529.263 160.213 529.66C160.213 529.66 161.245 529.984 161.245 529.984C163.814 530.812 166.361 531.565 168.824 532.294C173.962 533.816 178.818 535.253 183.532 537.224C184.468 537.629 197.96 543.466 200.41 544.553C200.41 544.553 200.492 544.589 200.492 544.589C200.492 544.589 200.576 544.625 200.576 544.625C205.004 546.494 209.676 547.442 214.461 547.442C228.445 547.442 241.226 539.22 247.024 526.497C251.715 516.201 251.254 504.204 245.79 494.407C238.952 482.145 223.488 464.996 209.53 449.884C209.237 449.566 208.951 449.256 208.672 448.955C208.672 448.955 208.667 448.941 208.667 448.941C208.667 448.941 207.303 447.455 207.303 447.455C176 413.359 134.814 383.11 106.706 366.172C106.706 366.172 106.623 366.122 106.623 366.122C106.623 366.122 106.539 366.073 106.539 366.073C93.7366 358.692 85.7466 354.686 75.6306 349.612C68.2656 345.919 59.9176 341.732 47.6216 335.207C35.6116 328.832 26.3336 318.3 21.4966 305.549C16.6976 292.898 16.5296 278.86 21.0206 266.007C21.5416 264.625 22.5056 262.149 23.0066 261.05C26.0536 254.361 30.2606 248.419 35.5106 243.389C35.5106 243.389 35.9986 242.918 35.9986 242.918C46.5606 233.044 60.8586 227.395 75.3366 227.395C83.5576 227.395 91.5536 229.138 99.0916 232.573C100.087 233.036 104.843 235.657 106.297 236.478C133.982 253.079 157.472 269.44 178.106 286.495C201.501 305.831 220.749 325.626 236.95 347.012C236.95 347.012 238.443 348.984 238.443 348.984C238.443 348.984 238.764 349.134 238.764 349.134C239.42 349.882 239.969 350.487 240.41 350.937C242.389 352.951 245.288 354.668 247.341 355.604C250.736 357.151 254.341 357.936 258.054 357.936C258.495 357.936 258.941 357.924 259.381 357.901C259.381 357.901 259.456 357.898 259.456 357.898L259.597 357.894C259.597 357.894 259.738 357.884 259.738 357.884C269.303 357.271 277.712 351.477 281.681 342.763C283.134 339.575 283.918 336.201 284.014 332.722C284.014 332.722 284.054 332.514 284.054 332.514L284.023 331.516L284.022 331.114C284.022 331.114 284.005 331.007 284.005 331.007C283.897 328.645 283.491 326.35 282.794 324.18C282.707 323.898 282.545 323.43 281.78 321.393C280.571 318.123 277.36 309.437 220.441 229.544C192.087 189.746 164.335 151.856 163.062 150.273C156.535 142.155 152.34 132.382 150.93 122.01C149.482 111.362 151.074 100.561 155.533 90.773C158.671 83.887 163.043 77.791 168.548 72.634C169.179 72.041 171.725 69.898 172.468 69.289C177.655 65.25 183.445 62.154 189.676 60.088C189.676 60.088 190.998 59.65 190.998 59.65C193.686 58.829 196.476 58.193 199.293 57.76C202.121 57.333 205.001 57.116 207.852 57.116C216.078 57.116 224.083 58.863 231.645 62.309C246.819 69.223 258.224 82.375 262.934 98.395C262.934 98.395 263.008 98.645 263.008 98.645C263.008 98.645 263.094 98.891 263.094 98.891C263.939 101.293 292.779 157.982 348.814 267.383C348.814 267.383 349.128 267.997 349.128 267.997C349.128 267.997 349.524 268.562 349.524 268.562C352.132 272.285 355.731 275.265 359.933 277.179C362.916 278.539 366.051 279.311 369.27 279.481C369.27 279.481 369.305 279.498 369.305 279.498C369.305 279.498 369.609 279.498 369.609 279.498C369.953 279.511 370.298 279.518 370.643 279.518C371.03 279.518 371.42 279.509 371.807 279.491C372.438 279.47 373.121 279.398 373.422 279.364C377.741 278.912 381.903 277.36 385.468 274.874C385.659 274.744 385.833 274.618 385.998 274.499C385.998 274.499 386.219 274.34 386.219 274.34L386.409 274.205C386.409 274.205 386.592 274.062 386.592 274.062C389.893 271.485 392.55 268.122 394.274 264.338C395.503 261.64 396.248 258.803 396.489 255.904C396.661 254.089 396.602 251.922 396.334 250.219C396.085 248.634 394.865 244.511 394.506 243.448C394.506 243.448 394.509 243.447 394.509 243.447C383.427 212.646 375.671 184.029 370.801 155.964C365.415 124.931 363.672 95.368 365.473 65.586C365.473 65.586 365.503 65.078 365.503 65.078C365.503 65.078 365.503 65.064 365.503 65.064C365.54 64.497 365.61 63.512 365.666 62.708C365.699 62.234 365.728 61.811 365.747 61.521C366.392 55.36 368.035 49.35 370.63 43.655C375.288 33.43 382.708 24.908 392.136 18.936C392.136 18.936 393.272 18.252 393.272 18.252C402.241 12.854 412.497 9.99998 422.932 9.99998C422.932 9.99998 422.932 10 422.932 10Z" fill="#D8AC28" />
      </g>
    </g>
  </g>
</svg>